<svg width="70" height="60" viewBox="0 0 70 60" fill="none" xmlns="http://www.w3.org/2000/svg">
<g clip-path="url(#clip0_24_862)">
<path d="M30.4921 38.5275L19.9051 34.4279C19.0291 34.0882 18.4521 33.2409 18.4521 32.2971V19.2476C18.4521 18.3578 18.9659 17.5472 19.769 17.1746L30.4499 12.2104C31.0058 11.9518 31.6422 11.9305 32.2134 12.1525L42.8004 16.2521C43.6764 16.5918 44.2534 17.4391 44.2534 18.3829V31.4324C44.2534 32.3222 43.7396 33.1328 42.9365 33.5053L32.2537 38.4696C31.6978 38.7282 31.0614 38.7495 30.4902 38.5275H30.4921ZM20.8866 32.8182L30.9598 36.719C31.1917 36.8097 31.4505 36.8 31.6767 36.6958L41.8803 31.9535C42.2061 31.8011 42.4151 31.4729 42.4151 31.112V18.7265C42.4151 18.3424 42.1812 17.9988 41.8247 17.8598L31.7515 13.9591C31.5195 13.8684 31.2607 13.878 31.0346 13.9822L20.831 18.7245C20.5051 18.877 20.2962 19.2051 20.2962 19.5661V31.9516C20.2962 32.3357 20.53 32.6793 20.8866 32.8182Z" fill="#494A4D"/>
<path d="M32.2749 26.7326C32.2749 26.2199 31.8621 25.8042 31.3529 25.8042C30.8437 25.8042 30.4309 26.2199 30.4309 26.7326V36.939C30.4309 37.4518 30.8437 37.8674 31.3529 37.8674C31.8621 37.8674 32.2749 37.4518 32.2749 36.939V26.7326Z" fill="#494A4D"/>
<path d="M31.0231 23.8856L19.9033 19.5795C19.4279 19.3962 19.1921 18.8596 19.3742 18.3809C19.5564 17.9023 20.0892 17.6629 20.5646 17.8463L30.958 21.8725C31.1899 21.9632 31.4487 21.9536 31.6749 21.8493L42.1123 16.999C42.5743 16.7847 43.1225 16.9874 43.3353 17.4525C43.548 17.9177 43.3468 18.4697 42.8848 18.684L31.74 23.8625C31.5139 23.9667 31.2551 23.9763 31.0231 23.8856Z" fill="#494A4D"/>
<path d="M24.8527 59.7587L13.2536 53.9201C12.485 53.5341 12 52.7427 12 51.878V38.7629C12 37.85 12.5406 37.0239 13.3744 36.6649L20.4285 33.6211C20.8962 33.4184 21.4387 33.6385 21.6381 34.1094C21.8374 34.5804 21.6208 35.1246 21.155 35.3273L14.4019 38.2418C14.0626 38.3885 13.844 38.7224 13.844 39.0949V51.5711C13.844 51.9224 14.0415 52.2428 14.3539 52.4011L25.4718 57.9984C25.7134 58.12 25.9971 58.1297 26.2463 58.0216L37.2453 53.2754C37.5846 53.1287 37.8031 52.7948 37.8031 52.4223V39.9461C37.8031 39.5948 37.6057 39.2744 37.2932 39.1161L34.6384 37.7786C34.1841 37.5489 33.9981 36.993 34.2262 36.5336C34.4543 36.0743 35.0064 35.889 35.4626 36.1187L38.2843 37.5392C39.1181 37.9581 39.6453 38.817 39.6453 39.755V52.6231C39.6453 53.6151 39.0587 54.5107 38.1539 54.9006L26.7581 59.8185C26.1447 60.0829 25.4469 60.0617 24.8508 59.7626L24.8527 59.7587Z" fill="#494A4D"/>
<path d="M25.8245 59.2087C25.3166 59.2087 24.9025 58.7937 24.9025 58.2803V45.5087C24.9025 45.1574 24.7051 44.837 24.3926 44.6788L13.3341 39.1104C12.8798 38.8807 12.6939 38.3248 12.922 37.8655C13.1501 37.4061 13.7022 37.2208 14.1584 37.4505L25.5236 43.1733C26.2731 43.5497 26.7446 44.3217 26.7446 45.1632V58.2803C26.7446 58.7918 26.3325 59.2087 25.8226 59.2087H25.8245Z" fill="#494A4D"/>
<path d="M38.4453 39.0409C38.2344 38.7186 37.9775 38.3982 37.6613 38.1704L28.349 42.1889C27.8813 42.3916 27.6647 42.9359 27.866 43.4068C28.0673 43.8778 28.6078 44.0959 29.0755 43.8951L38.8133 39.6933C38.7002 39.4713 38.5814 39.2513 38.4453 39.0428V39.0409Z" fill="#494A4D"/>
<path d="M56.7323 52.7138H42.4113C41.9033 52.7138 41.4893 52.2988 41.4893 51.7854C41.4893 51.272 41.9014 50.857 42.4113 50.857H56.2358C56.7438 50.857 57.1578 50.442 57.1578 49.9286V36.4892C57.1578 36.331 57.1176 36.1765 57.0428 36.0395L53.1937 29.0621C53.0308 28.7668 52.7222 28.5854 52.3886 28.5854H44.2572C43.7493 28.5854 43.3352 28.1704 43.3352 27.657C43.3352 27.1436 43.7473 26.7286 44.2572 26.7286H52.6819C53.5062 26.7286 54.2634 27.1784 54.664 27.9041L58.7182 35.252C58.906 35.5917 59.0038 35.972 59.0038 36.3599V50.4285C59.0038 51.6889 57.9879 52.7118 56.7361 52.7118L56.7323 52.7138Z" fill="#494A4D"/>
<path d="M57.1579 35.0823H45.1774C44.6682 35.0823 44.2554 35.4979 44.2554 36.0107C44.2554 36.5234 44.6682 36.939 45.1774 36.939H57.1579C57.6671 36.939 58.0799 36.5234 58.0799 36.0107C58.0799 35.4979 57.6671 35.0823 57.1579 35.0823Z" fill="#494A4D"/>
</g>
<defs>
<clipPath id="clip0_24_862">
<rect width="47" height="48" fill="white" transform="translate(12 12)"/>
</clipPath>
</defs>
</svg>
