<svg width="106" height="47" viewBox="0 0 106 47" fill="none" xmlns="http://www.w3.org/2000/svg">
<g opacity="0.6">
<path d="M24.9221 22.3158C24.9221 21.5382 24.2926 20.9716 23.3261 20.9716C22.4919 20.9181 21.7459 21.4941 21.5853 22.3158H24.9221ZM29.0554 24.9159H21.6263C21.7113 25.6935 22.6336 26.1751 23.515 26.1751C24.2044 26.2003 24.8655 25.917 25.3188 25.3976L28.7595 27.1384C27.793 28.7123 25.8413 29.7197 23.3891 29.7197C20.1782 29.7197 17.1373 27.6861 17.1373 23.7827C17.1373 20.1311 19.8855 17.8457 23.2852 17.8457C26.685 17.8457 29.0963 20.405 29.0963 23.8897C29.0963 24.2454 29.0743 24.6673 29.0554 24.9191" fill="#A3A5A8"/>
<path d="M34.9797 23.3641V25.3788H36.4687C37.2462 25.3788 37.7908 25.0231 37.7908 24.3494C37.7908 23.553 36.8685 23.3641 36.2609 23.3641H34.9797ZM34.9797 18.3274V20.1532H36.3239C37.0164 20.1532 37.5201 19.8384 37.5201 19.1679C37.5201 18.6013 36.9944 18.3274 36.22 18.3274H34.9829H34.9797ZM40.0384 21.5792C41.4644 21.9161 42.8275 23.1123 42.8275 24.957C42.8275 28.2088 39.9534 29.3011 37.0574 29.3011H30.3208V14.446H36.4278C38.8422 14.446 42.2199 14.9497 42.2199 18.3904C42.2672 19.8007 41.3795 21.0756 40.0384 21.5163V21.5792Z" fill="#A3A5A8"/>
<path d="M48.67 20.7199H49.6553C50.3478 20.7199 51.3961 20.553 51.3961 19.4827C51.3961 18.4124 50.4926 18.3274 49.863 18.3274H48.6668V20.7199H48.67ZM43.8851 14.446H50.2848C53.2218 14.446 56.2879 15.4943 56.2879 19.2718C56.3257 21.0158 55.2932 22.6055 53.6846 23.2791L57.4621 29.3011H51.714L48.8588 23.9905H48.7109V29.2979H45.1222L45.6354 22.1112L43.882 14.446H43.8851Z" fill="#A3A5A8"/>
<path d="M65.8514 19.6306L64.6331 23.301H67.0476L65.8514 19.6306ZM63.5849 13.2718L65.9143 10.2498H70.3624L67.1294 13.2718H63.5817H63.5849ZM63.2701 14.4459H68.5806L74.3728 29.301H68.9363L68.162 27.1195H63.4401L62.7066 29.301H57.4181L63.2732 14.4459H63.2701Z" fill="#A3A5A8"/>
<path d="M75.0024 14.446H79.9762L84.2164 21.979H84.3014L84.0905 14.446H88.8313V29.3011H83.7316L79.6204 22.2088H79.5355L79.7464 29.3011H75.0056V14.446H75.0024Z" fill="#A3A5A8"/>
<path d="M97.4817 19.6305L96.2634 23.3009H98.6779L97.4817 19.6305ZM94.9004 14.449H100.208L106 29.304H100.564L99.786 27.1225H95.0641L94.3306 29.304H89.0421L94.8973 14.449H94.9004Z" fill="#A3A5A8"/>
<path d="M23.1183 2.55623C11.3923 2.55623 1.88875 12.0598 1.88875 23.7827C1.88875 35.5055 11.3923 45.0091 23.1152 45.0091C34.8381 45.0091 44.3416 35.5055 44.3416 23.7827C44.329 12.063 34.8318 2.56883 23.1152 2.55623M23.1152 46.901C10.3504 46.901 0 36.5506 0 23.7858C0 11.021 10.3504 0.66748 23.1152 0.66748C35.88 0.66748 46.2335 11.0178 46.2335 23.7827C46.2178 36.5444 35.8769 46.8853 23.1183 46.901" fill="#A3A5A8"/>
</g>
</svg>
