<svg width="70" height="60" viewBox="0 0 70 60" fill="none" xmlns="http://www.w3.org/2000/svg">
<g clip-path="url(#clip0_21_77)">
<path d="M33.9662 54.6515H31.8985V29.1432C31.8985 27.4423 30.5079 26.0581 28.7992 26.0581H12.2664C10.5577 26.0581 9.16704 27.4423 9.16704 29.1432V54.6515H7.09937V29.1432C7.09937 26.3063 9.41851 24 12.2664 24H28.7992C31.647 24 33.9662 26.3063 33.9662 29.1432V54.6515Z" fill="#494A4D"/>
<path d="M25.6998 44.5706H15.3657V46.6287H25.6998V44.5706Z" fill="#494A4D"/>
<path d="M25.6998 39.4294H15.3657V41.4876H25.6998V39.4294Z" fill="#494A4D"/>
<path d="M21.5686 29.1432H19.501V37.3714H21.5686V29.1432Z" fill="#494A4D"/>
<path d="M23.6342 31.1992H17.4333V33.2573H23.6342V31.1992Z" fill="#494A4D"/>
<path d="M52.5688 31.1992H46.3679V33.2573H52.5688V31.1992Z" fill="#494A4D"/>
<path d="M62.9005 54.6515H60.8328V29.1432C60.8328 27.4423 59.4422 26.0581 57.7335 26.0581H41.2007C39.492 26.0581 38.1014 27.4423 38.1014 29.1432V54.6515H36.0337V29.1432C36.0337 26.3084 38.3507 24 41.2007 24H57.7335C60.5814 24 62.9005 26.3063 62.9005 29.1432V54.6515Z" fill="#494A4D"/>
<path d="M54.6343 44.5706H44.3003V46.6287H54.6343V44.5706Z" fill="#494A4D"/>
<path d="M54.6343 39.4294H44.3003V41.4876H54.6343V39.4294Z" fill="#494A4D"/>
<path d="M50.501 29.1432H48.4333V37.3714H50.501V29.1432Z" fill="#494A4D"/>
<path d="M66 59.9999H4V58.9709C4 54.3562 11.2626 50.7427 20.5328 50.7427C26.6627 50.7427 32.1564 52.3558 35 54.921C37.8436 52.3558 43.3373 50.7427 49.4672 50.7427C58.7374 50.7427 66 54.3562 66 58.9709V59.9999ZM35.0688 57.9418H63.6959C62.5138 55.3381 56.9985 52.7987 49.4672 52.7987C43.3889 52.7987 37.8952 54.5081 35.7996 57.054L35.0688 57.9418ZM6.3041 57.9418H34.9312L34.2004 57.054C32.1048 54.5081 26.6111 52.7987 20.5328 52.7987C13.0015 52.7987 7.48624 55.336 6.3041 57.9418Z" fill="#494A4D"/>
<path d="M36.034 56.4036H33.9663V58.973H36.034V56.4036Z" fill="#494A4D"/>
</g>
<defs>
<clipPath id="clip0_21_77">
<rect width="70" height="60" fill="white"/>
</clipPath>
</defs>
</svg>
