<svg width="70" height="61" viewBox="0 0 70 61" fill="none" xmlns="http://www.w3.org/2000/svg">
<g clip-path="url(#clip0_21_671)">
<path d="M62.3069 52.0767H8.0689C7.53115 52.0767 7.09375 51.6347 7.09375 51.0855V45.8105C7.09375 45.2613 7.53115 44.8193 8.0689 44.8193H62.3069C62.8447 44.8193 63.2821 45.2613 63.2821 45.8105V51.0855C63.2821 51.6321 62.8447 52.0767 62.3069 52.0767ZM9.04406 50.0943H61.3318V46.7991H9.04406V50.0943Z" fill="#494A4D"/>
<path d="M19.5623 46.7992H14.8204C14.2826 46.7992 13.8452 46.3572 13.8452 45.808V40.3316C13.8452 39.785 14.2826 39.3405 14.8204 39.3405C15.3581 39.3405 15.7955 39.7824 15.7955 40.3316V44.8168H18.5846V40.3316C18.5846 39.785 19.022 39.3405 19.5598 39.3405C20.0975 39.3405 20.5349 39.7824 20.5349 40.3316V45.808C20.5349 46.3546 20.0975 46.7992 19.5598 46.7992H19.5623Z" fill="#494A4D"/>
<path d="M19.5623 33.103C19.0246 33.103 18.5872 32.6611 18.5872 32.1119V29.6352C18.5872 28.7251 17.9645 27.9824 17.2004 27.9824C16.4362 27.9824 15.7955 28.7251 15.7955 29.6352V32.1119C15.7955 32.6584 15.3581 33.103 14.8204 33.103C14.2826 33.103 13.8452 32.6611 13.8452 32.1119V29.6352C13.8452 27.6293 15.3504 26 17.2004 26C19.0503 26 20.5375 27.6319 20.5375 29.6352V32.1119C20.5375 32.6584 20.1001 33.103 19.5623 33.103Z" fill="#494A4D"/>
<path d="M55.5477 46.7992H50.8057C50.268 46.7992 49.8306 46.3572 49.8306 45.808V40.3316C49.8306 39.785 50.268 39.3405 50.8057 39.3405C51.3435 39.3405 51.7809 39.7824 51.7809 40.3316V44.8168H54.57V40.3316C54.57 39.785 55.0074 39.3405 55.5451 39.3405C56.0829 39.3405 56.5203 39.7824 56.5203 40.3316V45.808C56.5203 46.3546 56.0829 46.7992 55.5451 46.7992H55.5477Z" fill="#494A4D"/>
<path d="M55.5476 33.103C55.0098 33.103 54.5724 32.6611 54.5724 32.1119V29.6352C54.5724 28.7251 53.9498 27.9824 53.1856 27.9824C52.4214 27.9824 51.7833 28.7251 51.7833 29.6352V32.1119C51.7833 32.6584 51.3459 33.103 50.8082 33.103C50.2704 33.103 49.833 32.6611 49.833 32.1119V29.6352C49.833 27.6293 51.3382 26 53.1882 26C55.0381 26 56.5253 27.6319 56.5253 29.6352V32.1119C56.5253 32.6584 56.0879 33.103 55.5501 33.103H55.5476Z" fill="#494A4D"/>
<path d="M59.6361 41.328H10.7396C10.2018 41.328 9.7644 40.886 9.7644 40.3368V32.1118C9.7644 31.5626 10.2018 31.1206 10.7396 31.1206H59.6336C60.1713 31.1206 60.6087 31.5626 60.6087 32.1118V40.3368C60.6087 40.886 60.1713 41.328 59.6336 41.328H59.6361ZM11.7173 39.3456H58.661V33.103H11.7147V39.3456H11.7173Z" fill="#494A4D"/>
<path d="M13.0424 61H8.0689C7.53115 61 7.09375 60.5581 7.09375 60.0089V51.083C7.09375 50.5364 7.53115 50.0918 8.0689 50.0918H13.0424C13.5802 50.0918 14.0176 50.5338 14.0176 51.083V60.0089C14.0176 60.5554 13.5802 61 13.0424 61ZM9.04406 59.0177H12.0673V52.0742H9.04406V59.0177Z" fill="#494A4D"/>
<path d="M62.3068 61H57.3333C56.7956 61 56.3582 60.5581 56.3582 60.0089V51.083C56.3582 50.5364 56.7956 50.0918 57.3333 50.0918H62.3068C62.8446 50.0918 63.282 50.5338 63.282 51.083V60.0089C63.282 60.5554 62.8446 61 62.3068 61ZM58.3085 59.0177H61.3317V52.0742H58.3085V59.0177Z" fill="#494A4D"/>
<path d="M69.0223 60.9999H0.975152C0.437404 60.9999 0 60.558 0 60.0088C0 59.4596 0.437404 59.0176 0.975152 59.0176H69.0223C69.56 59.0176 69.9974 59.4596 69.9974 60.0088C69.9974 60.558 69.56 60.9999 69.0223 60.9999Z" fill="#494A4D"/>
</g>
<defs>
<clipPath id="clip0_21_671">
<rect width="70" height="61" fill="white"/>
</clipPath>
</defs>
</svg>
