<svg width="100" height="84" viewBox="0 0 100 84" fill="none" xmlns="http://www.w3.org/2000/svg">
<path d="M55.4042 21.7839V50.5098H48.9103V33.6029L49.2003 28.7874L48.0843 34.2971L43.2513 48.2075H36.8804L32.065 34.2971L30.9753 28.7874L31.2653 33.6029V50.5098H24.7539V21.7839H33.8927L39.6836 40.9579L40.079 43.2426L40.4657 40.9579L46.2565 21.7839H55.4042Z" fill="#494A4D"/>
<path d="M71.0458 21.2566C72.8296 21.2566 74.3938 21.4499 75.7295 21.8453C77.0651 22.2408 78.1372 22.6538 78.9544 23.0844C79.7716 23.5237 80.2637 23.8137 80.4307 23.9543L77.2936 29.2003C77.0651 29.0246 76.6697 28.7698 76.1073 28.4359C75.5449 28.1019 74.8859 27.8032 74.1302 27.5395C73.3657 27.2759 72.5748 27.1529 71.7488 27.1529C70.6328 27.1529 69.7277 27.355 69.0423 27.7504C68.3481 28.1459 68.0054 28.7434 68.0054 29.5255C68.0054 30.0615 68.1899 30.5448 68.559 30.9754C68.9281 31.406 69.4992 31.8102 70.255 32.1968C71.0195 32.5835 71.9861 32.9965 73.1636 33.4446C74.2356 33.8401 75.2462 34.297 76.1864 34.8418C77.1267 35.3779 77.9615 36.0105 78.682 36.7487C79.4026 37.478 79.965 38.3304 80.3868 39.2882C80.8086 40.246 81.0195 41.3357 81.0195 42.5571C81.0195 44.007 80.7207 45.2636 80.1319 46.3357C79.5344 47.3989 78.726 48.2865 77.7066 48.9807C76.6873 49.6749 75.5186 50.1933 74.2268 50.536C72.9263 50.8787 71.5818 51.0457 70.1847 51.0457C68.2075 51.0457 66.4412 50.8172 64.8859 50.3691C63.3217 49.9209 62.0651 49.4288 61.1073 48.9104C60.1495 48.3919 59.5783 48.0404 59.385 47.8647L62.6275 42.3989C62.8033 42.5308 63.1372 42.7416 63.6381 43.0316C64.139 43.3216 64.7541 43.6204 65.4746 43.9367C66.1952 44.2443 66.9773 44.5167 67.7945 44.7276C68.6117 44.9473 69.4202 45.0527 70.2198 45.0527C71.5555 45.0527 72.5572 44.7979 73.2251 44.2794C73.8929 43.761 74.2268 43.0844 74.2268 42.2408C74.2268 41.6169 74.0159 41.0545 73.5941 40.5624C73.1724 40.0703 72.5397 39.6046 71.7049 39.1564C70.8613 38.717 69.8156 38.2425 68.5502 37.7504C67.2848 37.2408 66.1073 36.6257 65.0177 35.8963C63.9193 35.167 63.0318 34.2619 62.3551 33.1722C61.6697 32.0826 61.327 30.7381 61.327 29.1213C61.327 27.5044 61.784 26.116 62.689 24.9297C63.5941 23.7434 64.7892 22.8383 66.2831 22.1968C67.7681 21.5554 69.3586 21.239 71.0634 21.239" fill="#494A4D"/>
<path d="M73.9367 1.48506C63.4183 1.48506 56.5993 6.66959 51.7838 11.5905L22.5483 0L0 23.3392L17.1178 67.6362L32.2408 75.8084V70.8612L20.6063 64.5694L5.06151 24.3585L23.6555 5.12302L52.9086 16.7311L53.9192 15.6503C60.3427 8.77856 66.3269 5.85237 73.9279 5.85237C85.9051 5.85237 95.6503 15.5975 95.6503 27.5747C95.6503 27.7856 95.6503 27.9877 95.6415 28.1898C95.29 42.2759 82.9438 56.5641 71.2917 66.9771L73.5413 70.8699C86.0896 59.7979 99.5958 44.2443 99.9912 28.2953C99.9912 28.0492 100 27.8119 100 27.5747C100 13.1986 88.304 1.50264 73.9192 1.50264" fill="#494A4D"/>
<path d="M29.9824 54.1917V59.8946H36.8366V82.9263H43.348V59.8946H50.1845V54.1917H29.9824Z" fill="#494A4D"/>
<path d="M66.283 77.0035C67.6187 77.0035 68.8314 76.8102 69.9298 76.4147C71.0282 76.0193 71.8454 75.6415 72.3814 75.2636L75.167 80.7908C74.4816 81.3708 73.3217 81.9596 71.6697 82.5571C70.0264 83.1546 68.0669 83.4534 65.8085 83.4534C63.6908 83.4534 61.7048 83.0843 59.8419 82.3462C57.9878 81.6081 56.3445 80.5624 54.9298 79.2267C53.515 77.8822 52.4078 76.3093 51.5994 74.4991C50.7909 72.6889 50.3867 70.7293 50.3867 68.6116C50.3867 66.4938 50.7821 64.5255 51.5818 62.7065C52.3814 60.8875 53.4887 59.297 54.9034 57.9525C56.3182 56.5993 57.9614 55.5536 59.8243 54.8067C61.6872 54.0597 63.682 53.6819 65.7997 53.6819C68.0669 53.6819 70.0177 53.9807 71.6609 54.5782C73.3129 55.1757 74.4728 55.7645 75.1582 56.3445L72.3727 61.8717C71.8366 61.4763 71.0194 61.0896 69.921 60.703C68.8226 60.3163 67.6099 60.123 66.2742 60.123C64.7892 60.123 63.5062 60.3515 62.399 60.8084C61.2918 61.2654 60.3779 61.8893 59.631 62.6889C58.8929 63.4886 58.3393 64.3849 57.979 65.3866C57.6187 66.3884 57.4342 67.4429 57.4342 68.5413C57.4342 69.6397 57.6187 70.7205 57.979 71.7311C58.3393 72.7416 58.8929 73.6467 59.631 74.4464C60.3691 75.246 61.2918 75.8699 62.399 76.3269C63.4974 76.7838 64.7892 77.0123 66.2742 77.0123" fill="#494A4D"/>
</svg>
