<svg width="57" height="48" viewBox="0 0 57 48" fill="none" xmlns="http://www.w3.org/2000/svg">
<g opacity="0.6">
<path d="M31.5804 12.4167V28.7905H27.8789V19.1536L28.0442 16.4087L27.4081 19.5493L24.6532 27.4782H21.0219L18.2771 19.5493L17.656 16.4087L17.8213 19.1536V28.7905H14.1097V12.4167H19.3189L22.6197 23.3459L22.8451 24.6482L23.0655 23.3459L26.3662 12.4167H31.5804Z" fill="#A3A5A8"/>
<path d="M40.4961 12.1165C41.5129 12.1165 42.4044 12.2267 43.1658 12.4521C43.9271 12.6774 44.5382 12.9129 45.004 13.1583C45.4698 13.4087 45.7503 13.574 45.8455 13.6542L44.0573 16.6444C43.9271 16.5442 43.7017 16.399 43.3811 16.2086C43.0606 16.0183 42.6849 15.848 42.2542 15.6977C41.8184 15.5475 41.3676 15.4774 40.8968 15.4774C40.2607 15.4774 39.7448 15.5926 39.3541 15.818C38.9584 16.0434 38.763 16.3839 38.763 16.8297C38.763 17.1353 38.8682 17.4108 39.0786 17.6562C39.289 17.9016 39.6145 18.132 40.0453 18.3524C40.4811 18.5728 41.032 18.8082 41.7032 19.0637C42.3143 19.289 42.8903 19.5495 43.4262 19.86C43.9622 20.1656 44.438 20.5262 44.8487 20.947C45.2594 21.3627 45.58 21.8485 45.8204 22.3945C46.0609 22.9405 46.1811 23.5615 46.1811 24.2578C46.1811 25.0842 46.0108 25.8005 45.6752 26.4115C45.3346 27.0176 44.8738 27.5235 44.2927 27.9192C43.7117 28.3149 43.0456 28.6104 42.3093 28.8057C41.568 29.0011 40.8016 29.0963 40.0052 29.0963C38.8782 29.0963 37.8715 28.966 36.9849 28.7106C36.0934 28.4551 35.3771 28.1746 34.8311 27.8791C34.2852 27.5836 33.9596 27.3832 33.8494 27.2831L35.6977 24.1676C35.7978 24.2427 35.9882 24.3629 36.2737 24.5282C36.5592 24.6935 36.9098 24.8638 37.3205 25.0441C37.7312 25.2194 38.177 25.3747 38.6428 25.4949C39.1087 25.6202 39.5695 25.6803 40.0253 25.6803C40.7866 25.6803 41.3576 25.535 41.7383 25.2395C42.1189 24.944 42.3093 24.5583 42.3093 24.0774C42.3093 23.7218 42.1891 23.4013 41.9486 23.1208C41.7082 22.8403 41.3476 22.5748 40.8717 22.3194C40.3909 22.0689 39.7949 21.7984 39.0736 21.518C38.3523 21.2274 37.6811 20.8768 37.0601 20.4611C36.434 20.0454 35.9281 19.5295 35.5424 18.9084C35.1517 18.2873 34.9564 17.5209 34.9564 16.5993C34.9564 15.6777 35.2168 14.8863 35.7327 14.2101C36.2486 13.5339 36.9298 13.018 37.7813 12.6524C38.6278 12.2868 39.5344 12.1064 40.5061 12.1064" fill="#A3A5A8"/>
<path d="M42.1439 0.846485C36.1484 0.846485 32.2616 3.80167 29.5168 6.60659L12.8525 0L0 13.3033L9.75712 38.5526L18.3772 43.2108V40.3909L11.7456 36.8046L2.88506 13.8844L13.4837 2.92012L30.1579 9.53673L30.7339 8.92065C34.3953 5.00378 37.8063 3.33585 42.1389 3.33585C48.9659 3.33585 54.5206 8.8906 54.5206 15.7176C54.5206 15.8378 54.5206 15.953 54.5156 16.0682C54.3153 24.0973 47.2779 32.2416 40.6363 38.177L41.9185 40.3959C49.0711 34.0848 56.7696 25.2192 56.995 16.1283C56.995 15.988 57 15.8528 57 15.7176C57 7.5232 50.3333 0.856503 42.1339 0.856503" fill="#A3A5A8"/>
<path d="M17.09 30.8894V34.1401H20.9968V47.2681H24.7083V34.1401H28.6052V30.8894H17.09Z" fill="#A3A5A8"/>
<path d="M37.7813 43.8917C38.5426 43.8917 39.2338 43.7815 39.8599 43.5561C40.486 43.3307 40.9519 43.1153 41.2574 42.9L42.8452 46.0505C42.4545 46.3811 41.7933 46.7167 40.8517 47.0573C39.915 47.3979 38.7981 47.5682 37.5108 47.5682C36.3037 47.5682 35.1717 47.3578 34.1099 46.9371C33.053 46.5163 32.1164 45.9203 31.3099 45.1589C30.5035 44.3926 29.8724 43.496 29.4116 42.4642C28.9508 41.4324 28.7204 40.3154 28.7204 39.1083C28.7204 37.9012 28.9458 36.7792 29.4016 35.7424C29.8574 34.7056 30.4885 33.799 31.2949 33.0327C32.1013 32.2613 33.038 31.6653 34.0998 31.2395C35.1617 30.8138 36.2987 30.5984 37.5058 30.5984C38.7981 30.5984 39.91 30.7687 40.8467 31.1093C41.7883 31.4499 42.4495 31.7855 42.8402 32.1161L41.2524 35.2666C40.9468 35.0412 40.481 34.8208 39.8549 34.6004C39.2288 34.38 38.5376 34.2698 37.7763 34.2698C36.9298 34.2698 36.1985 34.4001 35.5674 34.6605C34.9363 34.921 34.4154 35.2766 33.9896 35.7324C33.5689 36.1882 33.2534 36.6991 33.048 37.2701C32.8426 37.8411 32.7374 38.4421 32.7374 39.0682C32.7374 39.6943 32.8426 40.3104 33.048 40.8864C33.2534 41.4624 33.5689 41.9784 33.9896 42.4342C34.4104 42.89 34.9363 43.2456 35.5674 43.506C36.1935 43.7665 36.9298 43.8967 37.7763 43.8967" fill="#A3A5A8"/>
</g>
</svg>
