<svg width="21" height="20" viewBox="0 0 21 20" fill="none" xmlns="http://www.w3.org/2000/svg">
<path d="M18.9874 16.0985C19.1631 15.5003 19.1477 13.8599 18.2952 13.368L15.6391 12.0477C14.8442 11.6529 13.8787 11.9638 13.4617 12.7451C13.3056 13.0366 13.1957 13.2606 13.1957 13.2606C12.0772 13.2534 9.91417 11.5946 9.10688 10.8174C8.32629 10.0135 6.66138 7.85973 6.65317 6.74602C6.65317 6.74602 6.85858 6.66216 7.13692 6.53943C7.98838 6.16411 8.34991 5.15369 7.93394 4.32428L6.65727 1.77778C6.16325 0.929966 4.5158 0.913603 3.91495 1.08848C2.76975 1.42188 1.91213 2.21651 1.42427 3.10932C0.716605 4.40405 1.02062 6.09047 1.42427 7.79325C2.2408 10.2089 3.69721 12.3974 5.71544 14.3047C7.63095 16.3143 9.82892 17.7645 12.2549 18.5775C13.965 18.9795 15.6587 19.2822 16.959 18.5775C17.8556 18.0918 18.6526 17.2378 18.9885 16.0975L18.9874 16.0985Z" stroke="#F2D630" stroke-width="2" stroke-linecap="round" stroke-linejoin="round"/>
<path d="M12.3884 1.00146C16.0191 1.00146 18.9617 3.93148 18.9617 7.5467" stroke="#F2D630" stroke-width="2" stroke-linecap="round" stroke-linejoin="round"/>
<path d="M12.3884 4.27417C14.2032 4.27417 15.675 5.73969 15.675 7.54679" stroke="#F2D630" stroke-width="2" stroke-linecap="round" stroke-linejoin="round"/>
</svg>
