<svg width="70" height="61" viewBox="0 0 70 61" fill="none" xmlns="http://www.w3.org/2000/svg">
<g clip-path="url(#clip0_22_737)">
<path d="M60.877 61H7V51.9476H37.3063C37.9273 51.9476 38.4292 52.4537 38.4292 53.0798C38.4292 53.7059 37.9273 54.2119 37.3063 54.2119H9.24595V58.7381H60.877C61.4981 58.7381 62 59.2441 62 59.8702C62 60.4963 61.4981 61.0024 60.877 61.0024V61Z" fill="#494A4D"/>
<path d="M21.5916 53.0798H19.3457V45.1595H60.8747C61.4957 45.1595 61.9977 45.6656 61.9977 46.2917C61.9977 46.9178 61.4957 47.4238 60.8747 47.4238H21.5916V53.0821V53.0798Z" fill="#494A4D"/>
<path d="M32.8167 46.2892H30.5708V39.4988H60.8771C61.4981 39.4988 62 40.0048 62 40.6309C62 41.257 61.4981 41.7631 60.8771 41.7631H32.8167V46.2892Z" fill="#494A4D"/>
<path d="M44.0394 40.6309H41.7935V33.8405H60.8747C61.4957 33.8405 61.9976 34.3465 61.9976 34.9726C61.9976 35.5987 61.4957 36.1047 60.8747 36.1047H44.0371V40.6309H44.0394Z" fill="#494A4D"/>
<path d="M42.9188 53.0798C42.9188 52.4545 42.416 51.9476 41.7958 51.9476C41.1756 51.9476 40.6729 52.4545 40.6729 53.0798C40.6729 53.705 41.1756 54.2119 41.7958 54.2119C42.416 54.2119 42.9188 53.705 42.9188 53.0798Z" fill="#494A4D"/>
<path d="M60.877 51.9476H46.2853C45.6651 51.9476 45.1624 52.4545 45.1624 53.0798C45.1624 53.705 45.6651 54.2119 46.2853 54.2119H60.877C61.4972 54.2119 61.9999 53.705 61.9999 53.0798C61.9999 52.4545 61.4972 51.9476 60.877 51.9476Z" fill="#494A4D"/>
<path d="M12.6126 37.2369H10.3667V53.0798H12.6126V37.2369Z" fill="#494A4D"/>
<path d="M47.4083 19.1321H45.1624V34.9749H47.4083V19.1321Z" fill="#494A4D"/>
<path d="M11.7627 38.369H8.12297C7.50195 38.369 7 37.863 7 37.2369C7 36.6108 7.50195 36.1048 8.12297 36.1048H11.2164L46.0122 18H51.8979C52.5189 18 53.0209 18.506 53.0209 19.1321C53.0209 19.7582 52.5189 20.2643 51.8979 20.2643H46.5585L11.7627 38.369Z" fill="#494A4D"/>
</g>
<defs>
<clipPath id="clip0_22_737">
<rect width="55" height="43" fill="white" transform="translate(7 18)"/>
</clipPath>
</defs>
</svg>
