<svg width="70" height="60" viewBox="0 0 70 60" fill="none" xmlns="http://www.w3.org/2000/svg">
<path d="M61.0525 30.5635H39.8218L40.972 23.2452C41.0144 22.9697 40.9343 22.6895 40.7504 22.4793C40.5666 22.2692 40.2979 22.1431 40.0198 22.1431H37.5781L38.1579 20.6626C39.3599 20.3497 40.2885 19.6865 40.9296 18.6918C42.6501 16.0157 41.5235 11.8546 41.4716 11.6771C41.3962 11.4015 41.1794 11.1727 40.9013 11.0653C40.6232 10.9579 40.3073 10.9859 40.0669 11.1353C39.9114 11.2334 36.2488 13.5545 35.6973 16.6789C35.4946 17.8418 35.7303 18.9533 36.4044 19.9854L35.5606 22.1431H34.6791L34.2549 20.7467C34.8818 19.92 35.1505 19 35.0562 18.0052C34.797 15.3152 31.8603 13.1249 31.7377 13.0361C31.5256 12.8773 31.2381 12.8306 30.9741 12.91C30.7101 12.9894 30.498 13.1856 30.4085 13.4284C30.3566 13.5732 29.1263 17.0058 30.4085 19.3876C30.8846 20.2703 31.6199 20.8868 32.6004 21.237L32.8738 22.1384H30.4556C30.1728 22.1384 29.9041 22.2598 29.725 22.47C29.5411 22.6801 29.461 22.9603 29.5034 23.2406L30.6536 30.5588H7.94746C7.42424 30.5588 7 30.9791 7 31.4975V35.7054C7 36.2238 7.42424 36.6441 7.94746 36.6441H9.35216V59.9952H16.5878V42.6874H52.4169V59.9952H59.6525V36.6441H61.0572C61.5805 36.6441 62.0047 36.2238 62.0047 35.7054V31.4975C62.0047 30.9791 61.5805 30.5588 61.0572 30.5588L61.0525 30.5635ZM52.4122 36.6488V40.8146H16.583V36.6488H52.4122ZM54.3072 58.1225V36.6488H57.7576V58.1225H54.3072ZM11.2424 58.1225V36.6488H14.6928V58.1225H11.2424ZM31.7047 15.3058C32.36 15.9784 33.2037 17.0385 33.3263 18.1173C33.2744 18.0706 33.2179 18.0286 33.1566 17.9959C32.9539 17.8885 32.7229 17.8651 32.4967 17.9305C32.195 18.0192 31.9829 18.2574 31.9121 18.5376C31.4172 17.5709 31.5303 16.2259 31.7 15.3058H31.7047ZM39.3457 17.6877C39.308 17.7484 39.2609 17.7997 39.2185 17.8558C39.2326 17.697 39.2137 17.5382 39.1478 17.3888C39.044 17.1599 38.8602 16.9871 38.6245 16.8937C38.2239 16.7396 37.7808 16.8844 37.5357 17.2113C37.5404 17.1412 37.5404 17.0759 37.5545 17.0058C37.7949 15.6281 39.0252 14.3531 39.9255 13.5872C40.0669 14.7501 40.1094 16.5108 39.3504 17.6923L39.3457 17.6877ZM37.8845 30.4981H32.6004L31.5869 24.0578H38.8979L37.8845 30.4981ZM60.1098 32.4456V34.776H8.89493V32.4456H60.1098Z" fill="#494A4D"/>
</svg>
