<svg width="70" height="60" viewBox="0 0 70 60" fill="none" xmlns="http://www.w3.org/2000/svg">
<g clip-path="url(#clip0_8_55)">
<path d="M12.0272 59.9991C11.4609 59.9991 11 59.5353 11 58.9654V48.2692C11 46.3664 11.7363 44.5782 13.0732 43.2331C14.1634 42.1351 15.5371 41.4407 17.0514 41.2208V37.1018C17.0514 36.7283 17.2526 36.3829 17.5762 36.2002C17.7293 36.1137 17.903 36.0681 18.0786 36.0681C18.2677 36.0681 18.4531 36.1208 18.6142 36.2199L23.5967 39.2841V35.1689C23.5967 34.7897 23.8022 34.4421 24.1332 34.2607C24.2831 34.1785 24.4531 34.1353 24.624 34.1353C24.8224 34.1353 25.0157 34.1926 25.1824 34.3016L26.9586 35.4592C28.6325 36.5511 29.996 37.8159 31.0162 39.2221V36.9153C31.0162 32.5106 28.2221 29.4689 25.9767 27.0248L25.9696 27.0173C25.8338 26.8698 25.6998 26.7236 25.5681 26.5789L21.5376 22.5233C20.8802 21.8618 19.9696 21.4822 19.0395 21.4822H12.0272C11.4609 21.4822 11 21.0185 11 20.4486C11 19.8787 11.4609 19.4149 12.0272 19.4149H19.0395C20.5103 19.4149 21.9508 20.0149 22.9907 21.0612L26.5262 24.6193C27.3293 24.3073 28.9837 23.8116 31.3832 23.8116C33.1682 23.8116 34.6689 24.1518 35.6397 24.4497C36.2579 22.318 38.2115 20.8376 40.4247 20.8376H42.609C43.3916 20.8376 44.1275 20.5308 44.6812 19.9731L46.1754 18.4692C47.1181 17.5215 48.37 17 49.7007 17H57.9728C58.5391 17 59 17.4637 59 18.0336C59 18.6035 58.5391 19.0673 57.9728 19.0673H49.7007C48.9186 19.0673 48.1823 19.3741 47.628 19.9313L46.1343 21.4347C45.1921 22.3829 43.9402 22.9049 42.609 22.9049H40.4247C38.996 22.9049 37.7619 23.9639 37.5326 25.3771C40.7609 28.026 43.1161 31.9801 44.0191 36.2594C45.0865 34.9462 46.5826 33.9614 48.4689 33.3309C48.5735 33.2957 48.6828 33.2783 48.793 33.2783C49.0101 33.2783 49.2179 33.3459 49.3939 33.4737C49.661 33.6678 49.8202 33.9811 49.8202 34.3119V37.7337C50.7984 36.8232 51.962 36.297 53.2825 36.1687C53.3152 36.1654 53.3479 36.164 53.3801 36.164C53.6364 36.164 53.882 36.2594 54.0716 36.4323C54.2854 36.6277 54.4082 36.9068 54.4082 37.1976V40.2609C57.0314 40.7463 59 43.0578 59 45.6696V58.9668C59 59.5367 58.5391 60.0005 57.9728 60.0005H24.5357C23.9693 60.0005 23.5085 59.5367 23.5085 58.9668C23.5085 58.3969 23.9693 57.9332 24.5357 57.9332H27.4806V54.8953C27.4806 54.1492 27.1799 53.4191 26.656 52.8919L23.0121 49.2253C22.9127 49.1253 22.8062 49.0327 22.6956 48.95C22.21 48.5873 21.631 48.3956 21.0212 48.3956H17.4735C17.0514 48.3956 16.6465 48.4863 16.2702 48.6653C15.9788 48.8044 15.7136 48.9923 15.483 49.2249L13.0549 51.668V52.361H16.8875C17.904 52.361 18.8981 52.7157 19.6876 53.3599L20.9577 54.3963C21.3975 54.7553 21.4652 55.4074 21.1085 55.8504C20.9124 56.0933 20.6215 56.2329 20.31 56.2329C20.0724 56.2329 19.8487 56.153 19.6633 56.0017L18.3933 54.9653C17.9689 54.619 17.4338 54.4278 16.8875 54.4278H13.0545V57.9323H16.3286C16.8949 57.9323 17.3558 58.396 17.3558 58.9659C17.3558 59.5358 16.8949 59.9995 16.3286 59.9995H12.0272V59.9991ZM56.9455 57.9318V46.7019H53.8974C53.2956 46.7019 52.7068 46.9476 52.2814 47.3756L51.8051 47.8548C51.3728 48.289 51.1351 48.8664 51.1351 49.4814V52.2243C51.1351 53.459 50.6346 54.5373 49.5597 55.6179L48.7781 56.4044C48.3695 56.8155 48.1346 57.3548 48.1108 57.9323H56.9455V57.9318ZM46.0549 57.9318C46.0797 56.8033 46.5284 55.7447 47.3245 54.9427L48.0637 54.1994C48.6576 53.6018 49.0587 53.0413 49.0797 52.2722H46.0895C44.0495 52.2722 42.3896 50.6019 42.3896 48.5492V40.3629C42.3896 34.9763 39.9223 29.7625 35.9488 26.7523C35.5809 26.5959 33.7608 25.878 31.3832 25.878C30.2089 25.878 29.1214 26.0081 28.1488 26.2646C29.6332 27.7906 30.8023 29.3975 31.6246 31.0428C32.5841 32.9626 33.0707 34.9382 33.0707 36.9143V48.5492C33.0707 50.6019 31.4107 52.2722 29.3707 52.2722H28.7819C29.2689 53.046 29.5356 53.9697 29.5356 54.8934V57.9318H46.0554H46.0549ZM47.7658 35.8577C46.4219 36.5525 45.4568 37.5072 44.896 38.6964C44.4576 39.6262 44.444 40.3577 44.4436 40.3648V48.5492C44.4436 49.4621 45.1818 50.2049 46.089 50.2049H49.0797V49.4814C49.0797 48.3317 49.5429 47.2065 50.3507 46.3932L50.8265 45.914C51.6356 45.1007 52.7549 44.6341 53.8965 44.6341H56.7461C56.5706 44.1291 56.2802 43.6639 55.901 43.2829C55.2272 42.6054 54.3321 42.2323 53.3805 42.2323C52.8142 42.2323 52.3533 41.7686 52.3533 41.1987V38.5103C50.4683 39.318 49.7819 41.4783 49.7749 41.5008C49.6428 41.9382 49.2478 42.2328 48.793 42.2328C48.7426 42.2328 48.6917 42.2291 48.6412 42.2215C48.1416 42.1468 47.7653 41.7071 47.7653 41.1992V35.8577H47.7658ZM29.3707 50.2049C30.278 50.2049 31.0162 49.4621 31.0162 48.5492V45.2116C31.0162 42.2178 29.1784 39.3701 25.8412 37.1934L25.6512 37.0694V41.1268C25.6512 41.5003 25.45 41.8457 25.1264 42.0284C24.9732 42.1149 24.7995 42.1605 24.624 42.1605C24.4349 42.1605 24.2495 42.1078 24.0884 42.0087L19.1058 38.9445V42.1802C19.1058 42.7501 18.645 43.2138 18.0786 43.2138C16.7357 43.2138 15.4746 43.7396 14.5262 44.6943C13.577 45.6494 13.0545 46.9189 13.0545 48.2692V48.7433L14.0294 47.7623C14.4837 47.3051 15.0114 46.9485 15.5974 46.7028C16.1913 46.4538 16.8221 46.3269 17.4735 46.3269H21.0216C22.0764 46.3269 23.0775 46.6586 23.9175 47.2863C24.1099 47.4301 24.2939 47.5903 24.4652 47.7623L26.8932 50.2054H29.3712L29.3707 50.2049Z" fill="#494A4D"/>
<path d="M34.1189 54.9621C33.6944 54.9621 33.3232 54.7046 33.1733 54.3062C33.0253 53.9135 33.1304 53.4765 33.4409 53.1923C34.0923 52.5965 35.1849 51.1212 35.1849 47.9372V43.5922C35.1849 43.0307 35.606 42.5637 36.1439 42.5285C36.1668 42.5271 36.1897 42.5261 36.2121 42.5261C36.7785 42.5261 37.2393 42.9898 37.2393 43.5598V47.9372C37.2393 51.927 35.7032 53.8904 34.787 54.7056C34.5989 54.8733 34.3677 54.9616 34.1189 54.9616V54.9621Z" fill="#494A4D"/>
<path d="M39.6967 40.8051C39.1303 40.8051 38.6695 40.3414 38.6695 39.7715C38.6695 35.3024 36.3087 32.724 36.2849 32.6986C35.8959 32.2847 35.9146 31.6293 36.326 31.2379C36.5174 31.0556 36.7681 30.9551 37.0315 30.9551C37.3168 30.9551 37.582 31.0697 37.7781 31.2783C37.8986 31.4066 40.7239 34.4755 40.7239 39.7715C40.7239 40.3414 40.2631 40.8051 39.6967 40.8051Z" fill="#494A4D"/>
<path d="M46.0639 26.5861C45.4975 26.5861 45.0366 26.1224 45.0366 25.5525C45.0366 24.9826 45.4975 24.5189 46.0639 24.5189H48.8523C49.4911 24.5189 50.0911 24.2685 50.5426 23.8141L50.7999 23.5553C51.6399 22.7105 52.7558 22.2454 53.9432 22.2454H57.9733C58.5397 22.2454 59.0005 22.7091 59.0005 23.279C59.0005 23.8489 58.5397 24.3126 57.9733 24.3126H53.9432C53.3045 24.3126 52.7045 24.563 52.253 25.0174L51.9957 25.2763C51.1562 26.121 50.0397 26.5861 48.8523 26.5861H46.0639Z" fill="#494A4D"/>
<path d="M20.8414 30.7357C19.9986 30.7357 19.2062 30.4054 18.61 29.8059L18.1482 29.3412C17.6967 28.8869 17.0962 28.6365 16.4579 28.6365H12.0272C11.4609 28.6365 11 28.1728 11 27.6028C11 27.0329 11.4609 26.5692 12.0272 26.5692H16.4574C17.6448 26.5692 18.7608 27.0343 19.6008 27.8791L20.0626 28.3438C20.2708 28.5533 20.5472 28.6684 20.8414 28.6684H22.2819C22.8482 28.6684 23.3091 29.1321 23.3091 29.7021C23.3091 30.272 22.8482 30.7357 22.2819 30.7357H20.8414Z" fill="#494A4D"/>
<path d="M20.4011 59.9869C20.0696 59.9869 19.782 59.8281 19.5901 59.5396C19.2978 59.0994 19.4183 58.7254 19.5158 58.5417C19.7059 58.1842 20.1074 57.9436 20.5151 57.9436C20.7462 57.9436 21.1674 58.0249 21.3933 58.5699C21.5264 58.8913 21.4989 59.2201 21.3158 59.4959C21.1183 59.7943 20.7593 59.9874 20.4011 59.9874V59.9869Z" fill="#494A4D"/>
</g>
<defs>
<clipPath id="clip0_8_55">
<rect width="70" height="60" fill="white"/>
</clipPath>
</defs>
</svg>
