<svg width="70" height="61" viewBox="0 0 70 61" fill="none" xmlns="http://www.w3.org/2000/svg">
<path d="M14.3272 59.7936C13.6964 59.7936 13.1833 59.2877 13.1833 58.6591V43.5655C13.1833 42.9398 13.6964 42.4309 14.3272 42.4309C14.958 42.4309 15.4711 42.9368 15.4711 43.5655V58.6591C15.4711 59.2847 14.958 59.7936 14.3272 59.7936Z" fill="#494A4D"/>
<path d="M14.3272 50.1812C14.125 50.1812 13.9227 50.1303 13.7417 50.0226C10.9257 48.3611 9.19933 46.0441 8.61079 43.1403C7.17717 36.0336 13.1501 27.9509 13.4066 27.6097C13.8382 27.0349 14.8131 27.0349 15.2447 27.6097C15.4982 27.9509 21.4742 36.0336 20.0405 43.1403C19.455 46.0441 17.7286 48.3611 14.9097 50.0226C14.7286 50.1303 14.5264 50.1812 14.3242 50.1812H14.3272ZM14.3272 30.3368C12.7849 32.8035 9.93576 38.15 10.8563 42.7003C11.2758 44.7748 12.4137 46.4183 14.3242 47.7055C16.2377 46.4183 17.3755 44.7718 17.795 42.6973C18.7156 38.1381 15.8664 32.8035 14.3272 30.3398V30.3368Z" fill="#494A4D"/>
<path d="M65.8561 61.0001H4.14388C3.51309 61.0001 3 60.4942 3 59.8655C3 59.2369 3.51309 58.731 4.14388 58.731H65.8561C66.4869 58.731 67 59.2369 67 59.8655C67 60.4942 66.4869 61.0001 65.8561 61.0001Z" fill="#494A4D"/>
<path d="M41.9796 38.4076C41.4092 38.4076 40.8538 38.3507 40.3256 38.2369C36.6827 37.4706 34.0388 34.2315 34.0388 30.5345C34.0388 29.9088 34.5519 29.3999 35.1827 29.3999H48.7795C49.4103 29.3999 49.9234 29.9058 49.9234 30.5345C49.9234 34.2315 47.2765 37.4706 43.6335 38.2369C43.1084 38.3477 42.553 38.4046 41.9826 38.4046L41.9796 38.4076ZM36.4443 31.672C36.894 33.8094 38.5902 35.5547 40.8025 36.0187C41.551 36.1803 42.4082 36.1803 43.1536 36.0187C45.369 35.5547 47.0652 33.8064 47.5149 31.669H36.4443V31.672Z" fill="#494A4D"/>
<path d="M41.9794 52.0432C41.0347 52.0432 40.0991 51.9235 39.2027 51.681C34.5366 50.4417 31.28 46.2267 31.28 41.428C31.28 40.8024 31.7931 40.2935 32.4239 40.2935H51.5379C52.1687 40.2935 52.6818 40.7994 52.6818 41.428C52.6818 46.2267 49.4222 50.4417 44.7561 51.681C43.8597 51.9205 42.9241 52.0432 41.9824 52.0432H41.9794ZM33.6432 42.5626C34.099 45.8495 36.5014 48.6126 39.7942 49.4897C41.2067 49.8669 42.749 49.8669 44.1585 49.4897C47.4543 48.6126 49.8598 45.8495 50.3125 42.5626H33.6432Z" fill="#494A4D"/>
<path d="M43.8597 42.5626H40.1021C39.4713 42.5626 38.9583 42.0567 38.9583 41.428V37.1292C38.9583 36.797 39.1061 36.4826 39.3597 36.2641C39.6132 36.0486 39.9573 35.9528 40.2832 36.0096C41.3577 36.1803 42.5981 36.1803 43.6756 36.0096C44.0046 35.9558 44.3457 36.0516 44.5992 36.2641C44.8557 36.4796 45.0006 36.797 45.0006 37.1292V41.428C45.0006 42.0537 44.4875 42.5626 43.8567 42.5626H43.8597ZM41.246 40.2934H42.7159V38.3895C42.233 38.4135 41.7319 38.4135 41.246 38.3895V40.2934Z" fill="#494A4D"/>
<path d="M44.3185 56.1115H39.6434C39.0126 56.1115 38.4995 55.6056 38.4995 54.9769V50.7231C38.4995 50.0974 39.0126 49.5885 39.6434 49.5885C40.2742 49.5885 40.7873 50.0944 40.7873 50.7231V53.8424H43.1746V50.7231C43.1746 50.0974 43.6877 49.5885 44.3185 49.5885C44.9493 49.5885 45.4624 50.0944 45.4624 50.7231V54.9769C45.4624 55.6026 44.9493 56.1115 44.3185 56.1115Z" fill="#494A4D"/>
<path d="M56.1406 61H27.8182C27.1874 61 26.6743 60.4941 26.6743 59.8654V55.0547C26.6743 54.4291 27.1874 53.9202 27.8182 53.9202H56.1406C56.7714 53.9202 57.2845 54.4261 57.2845 55.0547V59.8654C57.2845 60.4911 56.7714 61 56.1406 61ZM28.9621 58.7308H54.9937V56.1893H28.9621V58.7308Z" fill="#494A4D"/>
<path d="M27.0577 33.956C26.4269 33.956 25.9138 33.4501 25.9138 32.8215V27.6875C25.9138 23.4486 29.774 20 34.5186 20C36.8033 20 38.9462 20.7843 40.5549 22.2093C42.1877 23.6432 43.1233 25.6399 43.1233 27.6875V29.2142C43.1233 29.8429 42.6103 30.3488 41.9795 30.3488C41.3487 30.3488 40.8356 29.8429 40.8356 29.2142V27.6875C40.8356 26.2715 40.1957 24.9274 39.0337 23.9066C37.8416 22.8499 36.2389 22.2691 34.5186 22.2691C31.0356 22.2691 28.2016 24.6999 28.2016 27.6875V32.8215C28.2016 33.4471 27.6885 33.956 27.0577 33.956Z" fill="#494A4D"/>
<path d="M56.9043 33.956C56.2735 33.956 55.7604 33.4501 55.7604 32.8215V27.6875C55.7604 24.6999 52.9263 22.2691 49.4434 22.2691C47.723 22.2691 46.1204 22.8499 44.9312 23.9036C43.7662 24.9274 43.1264 26.2715 43.1264 27.6875V29.2142C43.1264 29.8429 42.6133 30.3488 41.9825 30.3488C41.3517 30.3488 40.8386 29.8429 40.8386 29.2142V27.6875C40.8386 25.6399 41.7773 23.6432 43.4131 22.2063C45.0188 20.7843 47.1617 20 49.4434 20C54.1879 20 58.0512 23.4486 58.0512 27.6875V32.8215C58.0512 33.4471 57.5381 33.956 56.9073 33.956H56.9043Z" fill="#494A4D"/>
<path d="M51.3628 31.672H32.599C31.9682 31.672 31.4551 31.166 31.4551 30.5374C31.4551 29.9087 31.9682 29.4028 32.599 29.4028H51.3628C51.9936 29.4028 52.5067 29.9087 52.5067 30.5374C52.5067 31.166 51.9936 31.672 51.3628 31.672Z" fill="#494A4D"/>
<path d="M54.6769 42.5626H29.2791C28.6483 42.5626 28.1353 42.0567 28.1353 41.428C28.1353 40.7994 28.6483 40.2935 29.2791 40.2935H54.6769C55.3077 40.2935 55.8208 40.7994 55.8208 41.428C55.8208 42.0567 55.3077 42.5626 54.6769 42.5626Z" fill="#494A4D"/>
</svg>
