<svg width="104" height="81" viewBox="0 0 104 81" fill="none" xmlns="http://www.w3.org/2000/svg">
<path d="M37.0981 0C31.5986 0 26.0991 0.879507 20.6183 2.65724C15.1189 4.43496 10.3092 6.21269 6.18922 7.97171L4.71649 20.079L15.3053 36.9206C14.3172 41.2433 12.9004 45.435 11.0362 49.477C9.17198 53.519 7.21455 57.3551 5.14526 61.0041C3.07597 64.6531 1.36088 67.7408 0 70.3045V74.7394C0.782974 75.3382 1.92015 76.068 3.39289 76.9475C4.86563 77.827 6.43157 78.613 8.10938 79.3054C9.76854 79.9977 10.9057 80.3346 11.5023 80.3346C15.0443 77.3779 18.7541 73.7289 22.6876 69.4062C26.6025 65.0648 30.3309 60.4989 33.873 55.6709C37.415 50.843 40.3977 45.8279 42.8585 40.607C45.3193 35.3861 46.8293 30.4085 47.4259 25.6928C47.2208 22.942 46.1023 18.9562 44.033 13.7353C41.9637 8.51438 39.6707 3.94843 37.1167 0L37.0981 0Z" fill="#F2D630"/>
<path d="M99.6614 13.7353C97.5921 8.51438 95.2991 3.94843 92.7452 0C87.2457 0 81.7462 0.879507 76.2654 2.65724C70.766 4.43496 65.9563 6.21269 61.8363 7.97171L60.3636 20.079L70.9524 36.9206C69.9643 41.2433 68.5475 45.435 66.6833 49.477C64.8191 53.519 62.8616 57.3551 60.7924 61.0041C58.7231 64.6531 57.008 67.7408 55.6471 70.3045V74.7394C56.4301 75.3382 57.5672 76.068 59.04 76.9475C60.5127 77.827 62.0787 78.613 63.7565 79.3054C65.4156 79.9977 66.5528 80.3346 67.1494 80.3346C70.6914 77.3779 74.4012 73.7289 78.3347 69.4062C82.2496 65.0648 85.978 60.4989 89.52 55.6709C93.0434 50.843 96.0448 45.8279 98.5056 40.607C100.966 35.3861 102.476 30.4085 103.073 25.6928C102.868 22.942 101.749 18.9562 99.6801 13.7353H99.6614Z" fill="#F2D630"/>
</svg>
